<?xml version="1.0" standalone="no"?>
<!DOCTYPE svg PUBLIC "-//W3C//DTD SVG 20010904//EN"
 "http://www.w3.org/TR/2001/REC-SVG-20010904/DTD/svg10.dtd">
<svg version="1.0" xmlns="http://www.w3.org/2000/svg"
 width="512.000000pt" height="512.000000pt" viewBox="0 0 512.000000 512.000000"
 preserveAspectRatio="xMidYMid meet">
<metadata>
Created by potrace 1.14, written by Peter Selinger 2001-2017
</metadata>
<g transform="translate(0.000000,512.000000) scale(0.100000,-0.100000)"
fill="#000000" stroke="none">
<path d="M2710 4176 l0 -944 -47 -7 c-58 -10 -51 -8 -138 -30 -482 -121 -864
-446 -1119 -954 -20 -39 -37 -71 -39 -71 -1 0 -3 246 -3 548 0 301 -4 578 -8
615 -13 128 -80 301 -158 408 -43 61 -95 119 -105 119 -4 0 -19 -12 -32 -26
-24 -24 -24 -25 -45 -6 -12 11 -32 28 -45 38 -53 43 -53 43 -30 75 21 29 21
31 3 44 -29 23 -154 81 -209 99 -143 45 -302 57 -378 28 -220 -84 -272 -350
-98 -510 45 -41 118 -68 202 -74 143 -11 270 -113 295 -238 4 -19 8 -568 9
-1220 2 -1236 2 -1233 45 -1373 32 -103 106 -242 172 -324 57 -71 177 -178
251 -223 73 -45 204 -106 246 -115 9 -2 45 -10 80 -19 51 -12 138 -15 423 -16
l358 0 -2 32 -3 33 76 3 76 3 -1 -33 -1 -33 76 -3 76 -3 -2 36 -1 35 79 0 79
0 -4 -33 -3 -32 978 -3 977 -2 -4 137 c-4 147 -9 165 -63 249 -35 54 -90 97
-158 125 -32 13 -40 22 -38 40 2 43 14 164 18 184 1 11 6 56 10 100 4 44 9 88
11 97 1 9 5 48 9 85 3 37 8 79 10 93 2 14 7 57 11 95 3 39 8 84 10 100 4 29 9
79 19 180 3 28 7 66 10 85 7 50 14 114 20 195 3 39 8 77 10 85 2 8 7 49 10 90
4 41 8 86 10 100 5 32 16 138 30 275 3 39 8 81 10 95 2 14 7 57 10 95 4 39 8
77 10 85 2 8 7 51 11 95 3 44 8 89 10 100 2 11 7 52 10 90 5 61 12 79 50 140
82 127 148 287 170 410 3 17 8 44 11 60 11 63 10 874 -1 878 -6 2 -23 3 -38 2
l-28 -2 0 73 0 73 38 3 37 3 0 303 1 302 -80 0 -79 0 -71 -67 c-39 -38 -139
-131 -221 -209 -83 -77 -177 -166 -210 -197 l-60 -56 -405 -1 -406 0 -61 58
c-34 31 -110 102 -169 157 -59 55 -119 111 -133 125 -14 14 -65 62 -113 108
l-87 82 -80 0 -81 0 0 -944z"/>
</g>
</svg>
